<?xml version="1.0" encoding="UTF-8" standalone="no"?>
<!DOCTYPE svg PUBLIC "-//W3C//DTD SVG 1.1//EN" "http://www.w3.org/Graphics/SVG/1.1/DTD/svg11.dtd">
<svg xmlns="http://www.w3.org/2000/svg" version="1.1" viewBox="0.00 0.00 268.00 166.00">
<path fill="#ffffff" d="
  M 128.19 58.60
  L 128.39 54.63
  A 0.49 0.49 0.0 0 0 128.06 54.14
  C 121.07 51.63 122.43 42.18 130.25 42.07
  C 134.69 42.01 143.19 41.03 146.74 43.27
  C 151.16 46.06 149.77 51.92 145.29 54.13
  Q 144.75 54.39 144.75 55.00
  L 144.75 58.46
  Q 144.75 58.88 145.15 59.01
  C 170.51 66.90 181.79 93.07 167.91 116.07
  A 1.50 1.49 17.9 0 1 166.50 116.79
  Q 164.88 116.65 164.54 115.01
  A 1.15 1.13 -34.6 0 1 164.70 114.17
  C 180.92 88.76 158.42 55.13 128.15 63.03
  C 100.15 70.34 93.56 106.33 117.22 123.15
  Q 134.13 135.16 155.29 124.18
  Q 157.13 123.23 157.65 125.19
  A 1.53 1.53 0.0 0 1 156.95 126.89
  C 136.36 139.27 110.89 132.13 101.78 109.52
  Q 101.59 109.04 101.07 109.03
  Q 95.11 108.91 89.26 109.07
  Q 86.53 109.15 86.54 107.04
  A 1.79 1.79 0.0 0 1 88.33 105.26
  L 99.76 105.25
  A 0.43 0.43 0.0 0 0 100.18 104.75
  L 99.14 98.46
  Q 99.07 98.04 98.65 98.03
  C 96.35 97.96 93.98 97.90 91.72 98.12
  Q 90.17 98.27 89.40 97.21
  A 1.70 1.70 0.0 0 1 90.77 94.50
  L 98.49 94.50
  A 0.63 0.63 0.0 0 0 99.12 93.94
  L 99.76 87.78
  Q 99.82 87.25 99.28 87.25
  L 80.54 87.25
  Q 79.60 87.25 79.28 86.36
  C 78.51 84.15 80.00 83.54 81.87 83.53
  Q 91.15 83.48 100.44 83.50
  Q 100.95 83.51 101.17 83.03
  L 103.97 76.95
  A 0.35 0.35 0.0 0 0 103.65 76.45
  L 93.43 76.52
  A 1.31 1.31 0.0 0 1 92.35 75.95
  C 91.04 74.06 92.04 72.78 94.07 72.77
  Q 100.23 72.77 106.41 72.74
  A 1.13 1.13 0.0 0 0 107.29 72.32
  Q 115.35 62.47 127.69 59.22
  A 0.69 0.68 84.1 0 0 128.19 58.60
  Z
  M 145.70 48.19
  A 2.42 2.42 0.0 0 0 143.28 45.77
  L 129.68 45.77
  A 2.42 2.42 0.0 0 0 127.26 48.19
  L 127.26 48.33
  A 2.42 2.42 0.0 0 0 129.68 50.75
  L 143.28 50.75
  A 2.42 2.42 0.0 0 0 145.70 48.33
  L 145.70 48.19
  Z
  M 140.9900 54.9812
  A 0.48 0.48 0.0 0 0 140.5134 54.4979
  L 132.5336 54.4422
  A 0.48 0.48 0.0 0 0 132.0502 54.9188
  L 132.0300 57.8188
  A 0.48 0.48 0.0 0 0 132.5066 58.3021
  L 140.4864 58.3578
  A 0.48 0.48 0.0 0 0 140.9698 57.8812
  L 140.9900 54.9812
  Z"
/>
<path fill="#ffffff" d="
  M 165.25 95.65
  A 28.79 28.79 0.0 0 1 136.46 124.44
  A 28.79 28.79 0.0 0 1 107.67 95.65
  A 28.79 28.79 0.0 0 1 136.46 66.86
  A 28.79 28.79 0.0 0 1 165.25 95.65
  Z
  M 161.55 95.65
  A 25.08 25.08 0.0 0 0 136.47 70.57
  A 25.08 25.08 0.0 0 0 111.39 95.65
  A 25.08 25.08 0.0 0 0 136.47 120.73
  A 25.08 25.08 0.0 0 0 161.55 95.65
  Z"
/>
<ellipse fill="#ffffff" cx="0.00" cy="0.00" transform="translate(136.54,76.72) rotate(88.1)" rx="2.64" ry="1.87"/>
<path fill="#ffffff" d="
  M 130.93 92.67
  C 129.69 91.13 125.41 88.34 127.32 86.36
  A 1.85 1.85 0.0 0 1 129.96 86.34
  L 133.93 90.31
  A 0.83 0.83 0.0 0 0 134.90 90.46
  Q 136.51 89.62 138.09 90.43
  Q 138.73 90.76 139.25 90.25
  L 148.74 80.96
  Q 149.32 80.39 150.01 80.82
  C 151.76 81.89 151.65 83.12 150.32 84.52
  Q 146.41 88.60 142.27 92.44
  Q 141.89 92.79 141.97 93.31
  C 143.91 104.96 128.33 103.13 131.11 93.57
  Q 131.26 93.07 130.93 92.67
  Z
  M 138.60 95.68
  A 2.10 2.10 0.0 0 0 136.50 93.58
  A 2.10 2.10 0.0 0 0 134.40 95.68
  A 2.10 2.10 0.0 0 0 136.50 97.78
  A 2.10 2.10 0.0 0 0 138.60 95.68
  Z"
/>
<ellipse fill="#ffffff" cx="0.00" cy="0.00" transform="translate(117.55,95.61) rotate(-0.1)" rx="2.64" ry="1.91"/>
<ellipse fill="#ffffff" cx="0.00" cy="0.00" transform="translate(155.53,95.70) rotate(-0.9)" rx="2.70" ry="1.95"/>
<circle fill="#ffffff" cx="80.82" cy="107.18" r="1.79"/>
<ellipse fill="#ffffff" cx="0.00" cy="0.00" transform="translate(136.51,114.72) rotate(89.4)" rx="2.65" ry="1.88"/>
<circle fill="#ffffff" cx="161.68" cy="120.94" r="1.82"/>
</svg>
