<?xml version="1.0" encoding="UTF-8" standalone="no"?>
<!DOCTYPE svg PUBLIC "-//W3C//DTD SVG 1.1//EN" "http://www.w3.org/Graphics/SVG/1.1/DTD/svg11.dtd">
<svg xmlns="http://www.w3.org/2000/svg" version="1.1" viewBox="0.00 0.00 170.00 131.00">
<path fill="#ffffff" d="
  M 81.31 104.48
  Q 108.87 104.55 136.42 104.49
  C 137.78 104.48 138.71 104.82 138.98 106.20
  A 1.73 1.73 0.0 0 1 137.28 108.27
  L 45.45 108.18
  A 1.44 1.43 -89.8 0 1 44.02 106.73
  C 44.03 103.49 49.57 104.56 51.66 104.45
  Q 52.01 104.43 52.15 104.10
  L 54.77 97.69
  Q 54.95 97.26 54.79 96.82
  Q 49.90 83.26 45.18 69.68
  C 43.48 64.80 43.74 62.56 47.29 59.03
  Q 61.28 45.12 75.22 31.15
  Q 75.57 30.80 75.59 30.30
  Q 75.87 23.99 81.48 21.45
  C 86.33 19.26 89.32 23.71 92.21 26.58
  Q 92.57 26.93 93.05 26.78
  C 102.02 23.89 107.34 27.20 114.06 33.78
  Q 126.37 45.86 138.22 57.90
  A 1.57 1.56 -58.2 0 1 138.59 59.49
  C 138.00 61.27 136.71 61.60 135.36 60.25
  Q 123.92 48.74 112.41 37.31
  Q 111.99 36.89 111.57 37.31
  L 91.56 57.32
  A 1.04 1.03 -28.7 0 0 91.28 58.27
  Q 94.78 74.17 98.25 89.99
  Q 98.56 91.43 98.50 92.51
  A 1.12 1.11 76.9 0 1 97.93 93.43
  Q 96.43 94.28 95.31 92.92
  A 1.52 1.51 -71.4 0 1 95.01 92.31
  Q 91.25 75.56 87.73 58.75
  Q 87.53 57.80 85.96 56.23
  C 81.07 51.35 79.64 45.01 81.69 38.34
  Q 81.88 37.72 81.42 37.27
  L 78.21 34.13
  A 0.69 0.69 0.0 0 0 77.24 34.14
  L 53.81 57.57
  Q 53.30 58.08 53.98 58.33
  Q 57.18 59.51 58.33 62.70
  A 0.41 0.41 0.0 0 0 59.00 62.85
  L 70.56 51.48
  A 1.42 1.41 -62.6 0 1 71.77 51.09
  Q 73.89 51.41 73.46 53.48
  Q 73.36 53.99 72.99 54.36
  L 60.44 66.95
  A 0.77 0.75 58.3 0 0 60.26 67.76
  L 68.76 91.74
  Q 68.90 92.15 69.33 92.27
  Q 78.43 94.71 80.60 103.91
  Q 80.73 104.47 81.31 104.48
  Z
  M 83.28 33.87
  L 88.73 28.42
  A 0.23 0.23 0.0 0 0 88.73 28.10
  L 86.05 25.42
  A 2.90 2.87 45.0 0 0 81.97 25.40
  L 80.26 27.11
  A 2.90 2.87 45.0 0 0 80.28 31.19
  L 82.96 33.87
  A 0.23 0.23 0.0 0 0 83.28 33.87
  Z
  M 89.64 54.05
  L 108.84 34.72
  A 0.68 0.68 0.0 0 0 108.84 33.76
  L 108.76 33.68
  A 14.21 14.17 44.8 0 0 88.69 33.72
  L 88.51 33.91
  A 14.21 14.17 44.8 0 0 88.60 53.97
  L 88.68 54.05
  A 0.68 0.68 0.0 0 0 89.64 54.05
  Z
  M 55.16 65.25
  A 3.71 3.71 0.0 0 0 51.45 61.54
  A 3.71 3.71 0.0 0 0 47.74 65.25
  A 3.71 3.71 0.0 0 0 51.45 68.96
  A 3.71 3.71 0.0 0 0 55.16 65.25
  Z
  M 51.24 72.51
  Q 50.95 72.42 50.57 72.51
  Q 50.11 72.61 50.27 73.05
  L 57.80 94.17
  Q 57.97 94.66 58.46 94.47
  L 64.50 92.14
  A 0.45 0.44 70.3 0 0 64.76 91.58
  L 57.43 70.75
  Q 57.17 70.02 56.62 70.56
  Q 54.67 72.48 51.84 72.59
  Q 51.53 72.60 51.24 72.51
  Z
  M 76.73 103.50
  C 73.35 93.50 61.18 93.33 56.39 102.72
  Q 55.47 104.50 57.48 104.50
  L 76.00 104.50
  A 0.77 0.76 -9.3 0 0 76.73 103.50
  Z"
/>
<circle fill="#ffffff" cx="76.98" cy="47.69" r="1.80"/>
<circle fill="#ffffff" cx="98.31" cy="99.20" r="1.80"/>
</svg>
