<?xml version="1.0" encoding="UTF-8" standalone="no"?>
<!DOCTYPE svg PUBLIC "-//W3C//DTD SVG 1.1//EN" "http://www.w3.org/Graphics/SVG/1.1/DTD/svg11.dtd">
<svg xmlns="http://www.w3.org/2000/svg" version="1.1" viewBox="0.00 0.00 151.00 127.00">
<path fill="#ffffff" d="
  M 82.68 50.72
  C 74.30 43.48 74.83 30.03 82.34 22.49
  A 1.72 1.72 0.0 0 1 85.14 23.02
  Q 85.65 24.21 84.78 25.17
  C 78.32 32.26 78.92 41.12 84.85 48.12
  Q 85.18 48.50 85.23 49.00
  Q 85.42 50.81 83.65 51.02
  Q 83.10 51.09 82.68 50.72
  Z"
/>
<path fill="#ffffff" d="
  M 93.46 106.76
  C 97.50 111.56 97.81 116.92 90.07 116.98
  C 81.40 117.04 66.28 119.26 59.85 112.55
  A 2.09 2.08 51.6 0 0 57.20 112.24
  C 55.12 113.59 52.95 115.40 49.96 114.75
  C 47.77 114.28 46.19 112.51 44.09 111.42
  A 0.93 0.93 0.0 0 0 43.11 111.49
  C 35.82 116.81 33.84 115.52 28.20 109.54
  A 1.29 1.29 0.0 0 1 28.99 107.37
  L 30.18 107.23
  Q 30.79 107.16 31.22 107.59
  L 34.33 110.70
  A 2.82 2.82 0.0 0 0 38.55 110.45
  C 41.87 106.24 46.70 107.80 50.06 111.04
  A 1.65 1.65 0.0 0 0 52.30 111.09
  C 60.51 103.76 62.45 113.12 70.50 113.17
  Q 81.04 113.25 91.87 113.26
  A 1.09 1.09 0.0 0 0 92.72 111.48
  L 89.75 107.86
  Q 89.44 107.49 88.99 107.65
  C 68.64 115.13 62.72 98.40 54.46 84.34
  A 1.87 1.87 0.0 0 1 55.12 81.79
  Q 56.44 81.02 57.28 82.41
  C 64.27 93.87 69.99 111.58 88.09 104.12
  Q 88.59 103.92 88.32 103.44
  L 81.68 91.77
  A 1.76 1.75 -37.8 0 1 81.95 89.67
  C 83.15 88.45 84.31 89.20 85.05 90.45
  Q 88.43 96.10 91.77 101.94
  A 0.69 0.69 0.0 0 0 92.74 102.18
  C 100.57 97.15 92.53 87.22 89.37 81.92
  C 82.68 70.68 71.97 87.09 67.08 78.68
  Q 62.89 71.48 58.68 64.30
  Q 55.64 59.10 60.42 55.89
  Q 60.85 55.60 60.59 55.15
  L 47.49 32.50
  A 0.48 0.48 0.0 0 0 46.80 32.35
  C 31.12 43.60 43.70 58.28 50.10 69.50
  A 1.70 1.70 0.0 0 1 49.85 71.52
  C 48.54 72.90 47.43 72.39 46.60 70.89
  C 42.99 64.31 36.89 55.83 35.74 49.47
  C 34.10 40.44 38.77 34.14 45.46 28.42
  C 57.22 18.39 63.09 29.18 68.31 38.33
  C 74.40 48.97 70.34 53.23 61.48 59.51
  A 1.23 1.23 0.0 0 0 61.12 61.12
  L 70.09 76.85
  Q 70.71 77.93 71.89 77.51
  C 75.63 76.18 80.15 73.75 83.93 74.19
  C 90.72 74.97 94.11 82.60 97.32 88.56
  C 101.02 95.44 100.99 101.92 93.60 105.99
  Q 93.06 106.29 93.46 106.76
  Z
  M 65.20 40.12
  C 62.41 35.38 58.15 24.75 50.48 29.25
  A 0.56 0.55 60.4 0 0 50.28 30.00
  L 63.39 52.83
  Q 63.62 53.23 64.00 52.96
  C 69.15 49.33 68.12 45.08 65.20 40.12
  Z"
/>
<path fill="#ffffff" d="
  M 88.16 45.92
  Q 80.14 37.48 87.16 28.15
  A 1.98 1.96 28.0 0 1 89.38 27.48
  Q 90.66 27.93 90.51 29.32
  Q 90.45 29.87 90.11 30.30
  Q 84.78 37.06 90.68 43.36
  A 0.68 0.67 42.9 0 1 90.72 44.24
  L 89.48 45.85
  A 0.87 0.87 0.0 0 1 88.16 45.92
  Z"
/>
<circle fill="#ffffff" cx="96.02" cy="36.67" r="1.81"/>
<path fill="#ffffff" d="
  M 114.25 69.87
  C 116.42 67.73 118.35 70.65 119.51 72.66
  Q 127.12 85.75 117.37 97.45
  A 1.96 1.96 0.0 0 1 114.33 97.41
  Q 113.49 96.34 114.38 95.37
  C 121.14 87.95 120.63 78.90 114.20 71.78
  A 1.38 1.38 0.0 0 1 114.25 69.87
  Z"
/>
<path fill="#ffffff" d="
  M 109.92 92.76
  L 108.78 91.48
  A 0.83 0.83 0.0 0 1 108.79 90.37
  Q 114.59 83.96 109.17 77.23
  A 1.81 1.77 -59.0 0 1 108.82 75.75
  C 109.16 74.13 110.88 74.11 111.94 75.07
  C 117.31 79.89 116.02 88.17 111.29 92.81
  A 0.94 0.94 0.0 0 1 109.92 92.76
  Z"
/>
<circle fill="#ffffff" cx="52.26" cy="76.95" r="1.80"/>
<circle fill="#ffffff" cx="103.44" cy="83.70" r="1.80"/>
<circle fill="#ffffff" cx="79.72" cy="84.42" r="1.78"/>
</svg>
